<?xml version="1.0" encoding="UTF-8"?>
<svg xmlns="http://www.w3.org/2000/svg" width="265" height="79" viewBox="0 0 265 79" fill="none">
  <g clip-path="url(#clip0_14_454)">
    <path d="M9.28542 9.02015C9.28542 6.76511 9.02012 5.35019 8.50426 4.77538C7.87049 4.0237 6.07236 3.33097 3.1246 2.6972V0.353731L21.0765 0L21.5039 0.353731C19.6026 2.54981 18.6446 6.04291 18.6446 10.8478V47.6358C18.6446 55.3885 17.0823 61.4314 13.9576 65.7646C10.833 70.1567 6.52926 72.3528 1.03169 72.3528L-0.0147705 70.0978C6.26396 69.2135 9.27068 59.4711 9.27068 53.0892V9.02015H9.28542Z" fill="#004B9C"></path>
    <path d="M212.828 61.0924C215.791 61.1956 218.4 60.5324 220.684 59.1174C222.969 57.7025 224.767 55.5949 226.108 52.7945C227.449 49.9941 228.186 46.6631 228.319 42.7868C228.407 40.3697 227.833 38.4536 226.609 37.0387C225.386 35.6238 223.455 34.8573 220.846 34.7689C217.928 34.6657 215.334 35.3143 213.079 36.7292C210.824 38.1294 209.011 40.237 207.685 43.0227C206.343 45.823 205.606 49.1687 205.474 53.0745C205.385 55.5212 205.96 57.4519 207.183 58.8521C208.407 60.2523 210.293 61.004 212.843 61.0924H212.828ZM212.401 46.1915C212.946 43.8185 213.801 41.8141 214.98 40.1781C216.159 38.5568 217.663 37.7756 219.505 37.8346C220.625 37.8788 221.392 38.2915 221.79 39.0874C222.188 39.8833 222.364 41.0329 222.306 42.5215C222.158 46.6631 221.451 50.3184 220.168 53.4725C218.886 56.6266 216.941 58.1594 214.317 58.071C213.197 58.0268 212.431 57.6141 212.018 56.8182C211.605 56.0223 211.428 54.8579 211.472 53.3251C211.561 50.9521 211.87 48.5644 212.416 46.1768L212.401 46.1915Z" fill="#009FE3"></path>
    <path d="M235.629 60.4291L238.695 43.1847C239.609 42.0351 240.862 40.9739 242.439 40.0159C244.016 39.0578 245.327 38.5862 246.344 38.5862C246.919 38.5862 247.347 38.6894 247.597 38.9105C247.848 39.1315 247.98 39.5148 247.98 40.0601C247.98 41.5192 247.273 42.8457 245.858 44.0101C244.443 45.1892 242.291 46.162 239.402 46.9431L239.152 47.7537C239.152 48.0338 240.449 54.003 242.144 58.1888C242.94 60.1786 243.736 61.1661 244.517 61.1661C246.551 61.1661 248.983 60.6944 251.813 59.7364V57.5993H247.877L244.458 47.6506C247.583 46.6336 249.897 45.2629 251.37 43.5384C252.844 41.8287 253.596 39.9717 253.596 38.0114C253.596 35.7416 252.387 34.592 249.97 34.592C248.673 34.592 247.317 34.872 245.888 35.4321C244.458 35.9922 243.146 36.6849 241.952 37.4955C240.758 38.3209 239.859 39.1021 239.255 39.839C240.596 32.3812 241.908 25.395 241.908 24.4369C241.908 23.6263 241.495 23.2136 240.685 23.2136C237.87 23.641 234.937 24.2011 231.915 25.056L232.328 26.8394L236.057 27.2963L229.424 61.1661L235.644 60.3996L235.629 60.4291Z" fill="#009FE3"></path>
    <path d="M168.892 48.5938C168.745 48.638 168.612 48.697 168.465 48.7412C168.465 48.7412 168.612 48.697 168.892 48.5938Z" fill="#009FE3"></path>
    <path d="M183.027 42.0941C181.479 44.7766 180.491 48.0633 180.049 51.9544C179.784 54.3863 180.197 56.3613 181.317 57.8499C182.437 59.3385 184.265 60.2228 186.8 60.5176C189.747 60.8419 192.4 60.385 194.773 59.1469C197.146 57.9088 199.121 55.9486 200.669 53.2514C202.216 50.5689 203.204 47.2969 203.631 43.4353C203.897 41.0329 203.469 39.0874 202.364 37.5693C201.244 36.0659 199.387 35.1521 196.793 34.8721C193.889 34.5478 191.251 35.0047 188.893 36.228C186.534 37.4514 184.574 39.4116 183.027 42.0941ZM186.033 52.6766C186.299 50.3036 186.785 47.9601 187.507 45.6314C188.229 43.3027 189.246 41.3719 190.543 39.8391C191.84 38.3062 193.403 37.643 195.23 37.8493C196.35 37.9672 197.073 38.4536 197.412 39.279C197.751 40.1044 197.839 41.254 197.662 42.7426C197.205 46.8695 196.218 50.451 194.685 53.5019C193.167 56.5529 191.103 57.9236 188.495 57.6288C187.375 57.5109 186.638 57.0245 186.299 56.1991C185.945 55.3738 185.856 54.1947 186.019 52.6766H186.033Z" fill="#009FE3"></path>
    <path d="M264.901 55.079C264.724 53.5756 264.223 52.0428 263.412 50.6868C262.41 49.0066 261.128 48.078 259.241 48.0485C257.354 48.0191 255.527 50.3478 257.192 52.1754C261.437 56.8624 252.137 63.6422 248.983 65.573C245.224 67.8575 241.024 69.3609 236.75 70.3484C228.363 72.2792 219.623 71.9549 211.104 71.2622C194.921 69.9652 180.005 64.3497 164.883 58.9258C166.328 55.6096 167.477 52.2638 168.479 48.7413C175.952 46.2799 184.795 37.4808 188.229 22.6388C188.613 20.6491 189.217 16.3306 188.2 12.7049C187.714 11.4079 187.08 10.3761 185.768 9.62446C184.574 8.94648 182.997 8.76961 181.111 9.55077C177.986 10.833 174.67 13.3239 171.722 18.3204C167.168 26.0435 165.708 34.8131 163.055 45.5577C159.621 45.1597 156.733 42.8457 155.848 40.7086C155.288 39.3379 155.126 38.0998 155.229 37.0976C155.273 36.6554 155.332 36.287 155.406 36.0069C155.509 35.5648 155.509 35.2405 155.406 34.99C155.214 34.5183 154.802 34.2088 154.168 34.0467C152.841 33.7224 152.119 34.2972 151.397 35.0489C150.97 35.5058 150.601 36.1248 150.292 36.8618C149.997 37.5987 149.82 38.4831 149.776 39.4853C149.584 44.0543 154.006 50.1562 161.994 49.9646C161.375 52.4407 160.638 55.1674 159.872 57.5846C155.082 56.4202 150.469 55.8454 145.649 56.715C140.682 57.5993 136.629 59.7364 134.05 64.1581C132.458 66.8847 131.912 70.142 133.136 73.1193C134.683 76.9219 138.206 79.339 143.364 78.9706C147.314 78.6905 152.665 76.3471 156.688 71.9991C158.339 70.2157 160.358 67.2237 162.584 63.2148C172.709 66.8847 182.85 70.82 193.241 73.473C204.354 76.3028 216.867 77.2167 228.289 76.3765C235.585 75.8459 239.594 74.5342 244.487 73.134C244.487 73.134 260.906 67.8722 264.591 57.614C264.886 56.8181 264.974 55.9485 264.871 55.1084C264.871 55.1084 264.871 55.1084 264.871 55.0937L264.901 55.079ZM176.379 19.1015C177.485 16.537 179.224 13.3239 181.803 12.2774C182.304 12.0711 182.938 11.9827 183.498 12.1448C184.117 12.3217 184.545 12.7491 184.795 13.3681C186.446 17.3918 183.999 25.8224 182.231 29.8314C180.816 33.0297 175.23 42.0646 169.717 44.4228C171.353 38.4831 174.64 23.0957 176.379 19.1015ZM154.065 70.3042C151.309 74.2247 147.344 76.0081 144.367 76.0965C141.286 76.1997 138.884 74.7847 137.322 71.6306C136.481 69.9504 136.29 66.6637 137.469 64.4528C138.751 62.0652 141.611 60.0459 145.325 59.8249C149.275 59.589 154.463 61.0924 158.236 62.3452C157.042 65.3961 155.642 68.0786 154.065 70.3042Z" fill="#009FE3"></path>
    <path d="M110.659 17.377H99.428V18.7625C102.155 20.1479 103.511 21.327 103.511 23.2725C103.511 23.6557 103.54 23.9063 103.378 24.4369C102.273 27.7974 94.6232 44.5849 94.52 44.7912C94.2547 45.3955 93.901 45.705 93.6062 45.705C93.3114 45.705 92.9577 45.4692 92.8398 45.1449L85.2788 24.3632C84.8661 23.0072 84.6745 22.064 84.6745 21.2828C84.6745 20.6638 84.7629 19.4847 85.3525 18.3056L84.8219 17.377H70.1862V18.7625C72.5002 19.75 74.3131 21.0175 75.3006 22.7567L88.315 55.639L92.6482 57.0244C93.0461 56.3907 96.8635 47.8569 104.1 31.4378C107.048 23.921 109.391 19.5141 111.131 18.2466L110.659 17.377Z" fill="#004B9C"></path>
    <path d="M143.91 45.8672C141.375 48.8002 137.587 49.9204 133.254 49.9204C129.377 49.9204 126.253 48.6823 123.88 46.1915C121.919 43.5827 120.726 40.7234 120.328 37.5987C120.328 36.6112 120.652 35.9185 121.286 35.5206C121.286 35.1226 126.783 34.1646 137.764 32.6465C142.156 32.1896 144.352 30.9073 144.352 28.8291C144.293 27.8564 143.924 26.5741 143.232 25.0118C140.402 19.6911 136.083 17.0381 130.306 17.0381C126.886 17.0381 123.688 18.0551 120.681 20.0743C115.007 24.5844 112.177 30.3472 112.177 37.3334C112.354 39.9422 112.663 42.0499 113.135 43.6711C116.201 51.9396 121.728 56.0812 129.702 56.0812H130.748C135.715 56.0812 140.417 53.7967 144.19 48.7118C144.558 48.2254 144.838 47.7096 145.074 47.1937L143.91 45.8672ZM120.328 30.3178C121.212 24.1569 124.41 20.8407 128.228 20.5164C130.409 20.3248 131.323 20.826 132.458 21.6513C134.035 22.801 134.978 24.5844 135.685 27.9006C135.789 28.4017 135.789 28.8734 135.597 29.2566C135.273 29.8903 134.89 29.9198 134.433 30.0525L122.155 31.7327C121.241 31.8211 120.873 31.8948 120.475 31.379C120.269 31.0989 120.269 30.7599 120.328 30.3325V30.3178Z" fill="#004B9C"></path>
    <path d="M67.0911 55.2706C66.8405 55.1674 66.6194 55.0495 66.4573 54.9021C65.234 53.723 64.556 52.5734 64.2465 48.6234C64.1433 47.3116 64.0843 45.6461 64.0549 43.8185V24.3485C64.0549 21.2239 64.2612 18.6299 64.6592 16.537L64.2023 16.1096L50.1414 20.3691V21.4008C50.1414 21.4008 52.4259 21.7693 53.1776 21.9166C54.9021 22.2851 55.6095 23.361 55.6095 26.2499C55.5211 42.9784 55.5211 43.6711 55.5211 44.2459C55.5211 44.8208 55.2116 46.0736 53.8703 47.3706C49.8172 51.3058 44.9681 51.0995 44.2459 51.0995C41.8435 51.0995 39.3821 49.3308 39.3821 44.3344V24.2896C39.3821 21.165 39.5884 18.5709 39.9864 16.478L39.5295 16.0506L25.336 20.3101V21.3418C25.336 21.3418 27.6205 21.7103 28.3722 21.8577C30.0966 22.2262 30.8041 23.3021 30.8041 26.1909L30.7157 43.7153C30.7157 46.3241 30.922 48.5202 31.32 50.3036C32.8823 54.7547 35.9479 56.9803 40.517 56.9803C49.4192 56.9803 53.0892 49.9499 55.0937 49.9499C55.6685 49.9499 55.919 50.4657 56.1401 51.0848C57.1866 54.8284 60.8713 57.1424 67.1058 56.995V55.2411L67.0911 55.2706Z" fill="#004B9C"></path>
  </g>
  <defs>
    <clipPath id="clip0_14_454">
      <rect width="264.945" height="79" fill="white"></rect>
    </clipPath>
  </defs>
</svg>
