<?xml version="1.0" encoding="UTF-8"?>
<svg xmlns="http://www.w3.org/2000/svg" width="214" height="82" viewBox="0 0 214 82" fill="none">
  <g clip-path="url(#clip0_14_440)">
    <path d="M121.675 40.5879C125.921 53.4868 124.868 74.6818 103.423 79.6594C103.049 79.7486 102.799 80.1054 102.87 80.48C102.924 80.8547 103.245 81.1223 103.637 81.1223C111.398 80.7833 123.958 74.2179 131.023 62.8176C131.023 62.8176 136.607 54.1113 131.326 39.3391C127.08 27.457 125.064 8.36735 141.942 1.4451C142.299 1.30237 142.495 0.892031 142.352 0.535214C142.227 0.178397 141.835 -0.0356934 141.46 0.0713517C134.27 2.05169 127.776 6.88655 122.424 16.3244C122.424 16.3244 116.483 24.9237 121.675 40.6236V40.5879Z" fill="url(#paint0_linear_14_440)"></path>
    <path d="M20.3564 58.8748H9.59838C9.08099 58.8748 8.67065 58.4645 8.67065 57.9649V25.5303C8.67065 22.6757 6.36918 20.3743 3.49681 20.3743H0C0 22.6222 2.21227 21.9443 2.99726 24.4777V58.8927C2.99726 61.7472 5.31657 64.0665 8.17111 64.0665H25.5303C25.5303 61.212 23.2109 58.8927 20.3564 58.8927V58.8748Z" fill="#7A1137"></path>
    <path d="M84.8332 25.4946V52.47L71.0066 25.2627C69.2225 22.2832 66.0112 20.4456 62.5679 20.3921H59.3744C59.3744 22.6579 61.6401 21.9443 62.4073 24.6025V64.0843H62.9604C65.7971 64.0843 68.0807 61.7829 68.0807 58.964V31.8816L83.1562 61.3012C84.191 63.0317 86.0643 64.0843 88.0803 64.0843H90.5602V20.3743H89.9357C87.1169 20.3743 84.8154 22.6579 84.8154 25.4946H84.8332Z" fill="#7A1137"></path>
    <path d="M167.044 25.4946V52.47L153.217 25.2627C151.415 22.2832 148.24 20.4456 144.761 20.3921H141.567C141.567 22.6579 143.833 21.9443 144.6 24.6025V64.0843H145.153C147.99 64.0843 150.273 61.7829 150.273 58.964V31.8816L165.349 61.3012C166.384 63.0317 168.257 64.0843 170.273 64.0843H172.771V20.3743H172.129C169.31 20.3743 167.026 22.6579 167.026 25.4946H167.044Z" fill="#7A1137"></path>
    <path d="M102.103 20.3743H97.6073C97.6073 23.318 100.569 22.3546 101.532 25.8514V58.3039C101.532 61.4617 104.101 64.0487 107.277 64.0487V25.5303C107.277 22.6757 104.958 20.3743 102.103 20.3743Z" fill="#7A1137"></path>
    <path d="M31.846 20.3742H28.6703C28.6703 22.6043 30.8647 21.9621 31.6497 24.4598V58.8748C31.6497 61.7293 33.969 64.0486 36.8236 64.0486H53.9686C53.9686 61.2298 50.115 58.9283 47.2783 58.9283H38.2687C37.7513 58.9283 37.3409 58.518 37.3409 58.0184V43.7636H43.7993C45.2266 43.7636 46.5825 43.1748 47.5637 42.1222C48.5272 41.0875 49.0445 39.678 48.9553 38.2686H37.3409V25.9763H47.3318C50.1864 25.9763 54.0757 23.6569 54.0757 20.7846V20.3564H31.846V20.3742Z" fill="#7A1137"></path>
    <path d="M198.801 20.3743H188.239C188.239 20.9273 188.382 21.302 188.596 21.5874C188.596 21.5874 188.596 21.5874 188.596 21.6053C188.613 21.6053 188.631 21.641 188.649 21.6588C189.309 22.4795 190.505 22.5865 190.219 24.6382L179.8 64.0665C183.511 64.0665 186.758 61.5688 187.686 57.9471L189.416 51.2568L200.246 48.4558L203.207 59.7669C203.867 62.2824 206.133 64.0665 208.756 64.0665H210.95L198.765 20.3743H198.801ZM190.808 45.3336L195.054 29.7229L199.55 45.3336H190.808Z" fill="#7A1137"></path>
    <path d="M213.84 23.5321C213.84 25.9585 211.878 27.9209 209.452 27.9209C207.025 27.9209 205.063 25.9585 205.063 23.5321C205.063 21.1057 207.025 19.1432 209.452 19.1432C211.878 19.1432 213.84 21.1057 213.84 23.5321Z" stroke="#7A1137" stroke-width="0.267613" stroke-miterlimit="10"></path>
    <path d="M210.219 23.8889L211.699 26.3331H210.807L209.559 24.0137H208.399V26.3331H207.703V20.6061H209.398C210.076 20.6061 210.593 20.7489 210.95 21.0522C211.307 21.3555 211.485 21.748 211.485 22.2297C211.485 22.6935 211.378 23.0503 211.164 23.3179C210.95 23.5856 210.629 23.764 210.219 23.8889ZM210.772 22.2475C210.772 22.0512 210.736 21.8907 210.665 21.748C210.593 21.6052 210.504 21.4982 210.379 21.409C210.254 21.3198 210.129 21.2663 209.969 21.2127C209.808 21.177 209.648 21.1592 209.469 21.1592H208.381V23.4607H209.22C209.469 23.4607 209.701 23.4428 209.898 23.4072C210.094 23.3715 210.254 23.3001 210.379 23.2109C210.504 23.1217 210.611 22.9968 210.665 22.8362C210.736 22.6757 210.772 22.4794 210.772 22.2475Z" fill="#7A1137"></path>
  </g>
  <defs>
    <linearGradient id="paint0_linear_14_440" x1="103.53" y1="61.0514" x2="144.975" y2="21.8372" gradientUnits="userSpaceOnUse">
      <stop stop-color="#E68F01"></stop>
      <stop offset="0.18" stop-color="#BB6116"></stop>
      <stop offset="0.36" stop-color="#E28106"></stop>
      <stop offset="0.6" stop-color="#FED799"></stop>
      <stop offset="0.85" stop-color="#CD7112"></stop>
      <stop offset="1" stop-color="#D3790F"></stop>
    </linearGradient>
    <clipPath id="clip0_14_440">
      <rect width="213.965" height="81.1045" fill="white"></rect>
    </clipPath>
  </defs>
</svg>
