<?xml version="1.0" encoding="UTF-8"?>
<svg xmlns="http://www.w3.org/2000/svg" width="335" height="54" viewBox="0 0 335 54" fill="none">
  <g clip-path="url(#clip0_13_409)">
    <path d="M273.75 27.0238C276.568 35.612 275.87 49.7237 261.638 53.0378C261.389 53.0972 261.223 53.3348 261.271 53.5843C261.306 53.8337 261.519 54.0119 261.78 54.0119C266.93 53.7862 275.266 49.4149 279.955 41.8245C279.955 41.8245 283.661 36.0277 280.156 26.1923C277.338 18.2811 276 5.57106 287.201 0.962174C287.438 0.867145 287.568 0.593938 287.473 0.356367C287.39 0.118795 287.13 -0.0237477 286.881 0.0475237C282.11 1.36605 277.8 4.58514 274.248 10.8689C274.248 10.8689 270.305 16.5944 273.75 27.0475V27.0238Z" fill="url(#paint0_linear_13_409)"></path>
    <path d="M206.51 39.1993H199.37C199.027 39.1993 198.754 38.9261 198.754 38.5935V16.9983C198.754 15.0977 197.227 13.5654 195.321 13.5654H193C193 15.0621 194.468 14.6107 194.989 16.2974V39.2112C194.989 41.1118 196.528 42.656 198.423 42.656H209.943C209.943 40.7554 208.404 39.2112 206.51 39.2112V39.1993Z" fill="#7A1137"></path>
    <path d="M249.3 16.9745V34.9349L240.124 16.8201C238.94 14.8364 236.809 13.6129 234.524 13.5772H232.404C232.404 15.0858 233.908 14.6107 234.417 16.3806V42.6679H234.784C236.667 42.6679 238.182 41.1355 238.182 39.2587V21.2271L248.187 40.8148C248.874 41.967 250.117 42.6679 251.455 42.6679H253.101V13.5654H252.687C250.816 13.5654 249.288 15.0858 249.288 16.9745H249.3Z" fill="#7A1137"></path>
    <path d="M303.86 16.9745V34.9349L294.684 16.8201C293.488 14.8364 291.381 13.6129 289.072 13.5772H286.952C286.952 15.0858 288.456 14.6107 288.965 16.3806V42.6679H289.332C291.215 42.6679 292.73 41.1355 292.73 39.2587V21.2271L302.735 40.8148C303.422 41.967 304.665 42.6679 306.003 42.6679H307.661V13.5654H307.235C305.364 13.5654 303.848 15.0858 303.848 16.9745H303.86Z" fill="#7A1137"></path>
    <path d="M260.762 13.5654H257.778C257.778 15.5253 259.743 14.8839 260.383 17.2121V38.8192C260.383 40.9217 262.088 42.6441 264.195 42.6441V16.9983C264.195 15.0977 262.656 13.5654 260.762 13.5654Z" fill="#7A1137"></path>
    <path d="M214.135 13.5653H212.027C212.027 15.0502 213.484 14.6225 214.005 16.2855V39.1993C214.005 41.0999 215.544 42.6441 217.438 42.6441H228.817C228.817 40.7673 226.259 39.2349 224.377 39.2349H218.397C218.054 39.2349 217.782 38.9617 217.782 38.6291V29.1382H222.068C223.015 29.1382 223.915 28.7462 224.566 28.0453C225.205 27.3564 225.549 26.418 225.49 25.4796H217.782V17.2952H224.412C226.307 17.2952 228.888 15.751 228.888 13.8386V13.5535H214.135V13.5653Z" fill="#7A1137"></path>
    <path d="M324.936 13.5654H317.926C317.926 13.9336 318.021 14.1831 318.163 14.3731C318.163 14.3731 318.163 14.3731 318.163 14.385C318.175 14.385 318.187 14.4087 318.199 14.4206C318.637 14.967 319.43 15.0383 319.241 16.4043L312.326 42.656C314.789 42.656 316.944 40.993 317.559 38.5816L318.708 34.1272L325.895 32.2622L327.86 39.7933C328.298 41.4681 329.802 42.656 331.543 42.656H332.999L324.912 13.5654H324.936ZM319.631 30.1835L322.449 19.7897L325.433 30.1835H319.631Z" fill="#7A1137"></path>
    <path d="M334.917 15.6679C334.917 17.2833 333.615 18.59 332.004 18.59C330.394 18.59 329.092 17.2833 329.092 15.6679C329.092 14.0524 330.394 12.7457 332.004 12.7457C333.615 12.7457 334.917 14.0524 334.917 15.6679Z" stroke="#7A1137" stroke-width="0.15" stroke-miterlimit="10"></path>
    <path d="M332.514 15.9054L333.496 17.5328H332.904L332.076 15.9886H331.306V17.5328H330.844V13.7198H331.969C332.419 13.7198 332.762 13.8148 332.999 14.0168C333.236 14.2187 333.354 14.48 333.354 14.8007C333.354 15.1096 333.283 15.3472 333.141 15.5253C332.999 15.7035 332.786 15.8223 332.514 15.9054ZM332.881 14.8126C332.881 14.682 332.857 14.575 332.81 14.48C332.762 14.385 332.703 14.3137 332.62 14.2543C332.537 14.1949 332.454 14.1593 332.348 14.1237C332.241 14.0999 332.135 14.088 332.016 14.088H331.294V15.6204H331.851C332.016 15.6204 332.17 15.6085 332.3 15.5847C332.431 15.561 332.537 15.5135 332.62 15.4541C332.703 15.3947 332.774 15.3115 332.81 15.2046C332.857 15.0977 332.881 14.967 332.881 14.8126Z" fill="#7A1137"></path>
  </g>
  <g clip-path="url(#clip1_13_409)">
    <path d="M6.29999 6.12C6.29999 4.59 6.11999 3.63 5.76999 3.24C5.33999 2.73 4.11999 2.26 2.11999 1.83V0.24L14.3 0L14.59 0.24C13.3 1.73 12.65 4.1 12.65 7.36V32.32C12.65 37.58 11.59 41.68 9.46999 44.62C7.34999 47.6 4.42999 49.09 0.69999 49.09L-0.0100098 47.56C4.24999 46.96 6.28999 40.35 6.28999 36.02V6.12H6.29999Z" fill="#004B9C"></path>
    <path d="M144.4 41.45C146.41 41.52 148.18 41.07 149.73 40.11C151.28 39.15 152.5 37.72 153.41 35.82C154.32 33.92 154.82 31.66 154.91 29.03C154.97 27.39 154.58 26.09 153.75 25.13C152.92 24.17 151.61 23.65 149.84 23.59C147.86 23.52 146.1 23.96 144.57 24.92C143.04 25.87 141.81 27.3 140.91 29.19C140 31.09 139.5 33.36 139.41 36.01C139.35 37.67 139.74 38.98 140.57 39.93C141.4 40.88 142.68 41.39 144.41 41.45H144.4ZM144.11 31.34C144.48 29.73 145.06 28.37 145.86 27.26C146.66 26.16 147.68 25.63 148.93 25.67C149.69 25.7 150.21 25.98 150.48 26.52C150.75 27.06 150.87 27.84 150.83 28.85C150.73 31.66 150.25 34.14 149.38 36.28C148.51 38.42 147.19 39.46 145.41 39.4C144.65 39.37 144.13 39.09 143.85 38.55C143.57 38.01 143.45 37.22 143.48 36.18C143.54 34.57 143.75 32.95 144.12 31.33L144.11 31.34Z" fill="#009FE3"></path>
    <path d="M159.87 41L161.95 29.3C162.57 28.52 163.42 27.8 164.49 27.15C165.56 26.5 166.45 26.18 167.14 26.18C167.53 26.18 167.82 26.25 167.99 26.4C168.16 26.55 168.25 26.81 168.25 27.18C168.25 28.17 167.77 29.07 166.81 29.86C165.85 30.66 164.39 31.32 162.43 31.85L162.26 32.4C162.26 32.59 163.14 36.64 164.29 39.48C164.83 40.83 165.37 41.5 165.9 41.5C167.28 41.5 168.93 41.18 170.85 40.53V39.08H168.18L165.86 32.33C167.98 31.64 169.55 30.71 170.55 29.54C171.55 28.38 172.06 27.12 172.06 25.79C172.06 24.25 171.24 23.47 169.6 23.47C168.72 23.47 167.8 23.66 166.83 24.04C165.86 24.42 164.97 24.89 164.16 25.44C163.35 26 162.74 26.53 162.33 27.03C163.24 21.97 164.13 17.23 164.13 16.58C164.13 16.03 163.85 15.75 163.3 15.75C161.39 16.04 159.4 16.42 157.35 17L157.63 18.21L160.16 18.52L155.66 41.5L159.88 40.98L159.87 41Z" fill="#009FE3"></path>
    <path d="M114.59 32.97C114.49 33 114.4 33.04 114.3 33.07C114.3 33.07 114.4 33.04 114.59 32.97Z" fill="#009FE3"></path>
    <path d="M124.18 28.56C123.13 30.38 122.46 32.61 122.16 35.25C121.98 36.9 122.26 38.24 123.02 39.25C123.78 40.26 125.02 40.86 126.74 41.06C128.74 41.28 130.54 40.97 132.15 40.13C133.76 39.29 135.1 37.96 136.15 36.13C137.2 34.31 137.87 32.09 138.16 29.47C138.34 27.84 138.05 26.52 137.3 25.49C136.54 24.47 135.28 23.85 133.52 23.66C131.55 23.44 129.76 23.75 128.16 24.58C126.56 25.41 125.23 26.74 124.18 28.56ZM126.22 35.74C126.4 34.13 126.73 32.54 127.22 30.96C127.71 29.38 128.4 28.07 129.28 27.03C130.16 25.99 131.22 25.54 132.46 25.68C133.22 25.76 133.71 26.09 133.94 26.65C134.17 27.21 134.23 27.99 134.11 29C133.8 31.8 133.13 34.23 132.09 36.3C131.06 38.37 129.66 39.3 127.89 39.1C127.13 39.02 126.63 38.69 126.4 38.13C126.16 37.57 126.1 36.77 126.21 35.74H126.22Z" fill="#009FE3"></path>
    <path d="M179.73 37.37C179.61 36.35 179.27 35.31 178.72 34.39C178.04 33.25 177.17 32.62 175.89 32.6C174.61 32.58 173.37 34.16 174.5 35.4C177.38 38.58 171.07 43.18 168.93 44.49C166.38 46.04 163.53 47.06 160.63 47.73C154.94 49.04 149.01 48.82 143.23 48.35C132.25 47.47 122.13 43.66 111.87 39.98C112.85 37.73 113.63 35.46 114.31 33.07C119.38 31.4 125.38 25.43 127.71 15.36C127.97 14.01 128.38 11.08 127.69 8.62C127.36 7.74 126.93 7.04001 126.04 6.53001C125.23 6.07001 124.16 5.95001 122.88 6.48001C120.76 7.35001 118.51 9.04001 116.51 12.43C113.42 17.67 112.43 23.62 110.63 30.91C108.3 30.64 106.34 29.07 105.74 27.62C105.36 26.69 105.25 25.85 105.32 25.17C105.35 24.87 105.39 24.62 105.44 24.43C105.51 24.13 105.51 23.91 105.44 23.74C105.31 23.42 105.03 23.21 104.6 23.1C103.7 22.88 103.21 23.27 102.72 23.78C102.43 24.09 102.18 24.51 101.97 25.01C101.77 25.51 101.65 26.11 101.62 26.79C101.49 29.89 104.49 34.03 109.91 33.9C109.49 35.58 108.99 37.43 108.47 39.07C105.22 38.28 102.09 37.89 98.82 38.48C95.45 39.08 92.7 40.53 90.95 43.53C89.87 45.38 89.5 47.59 90.33 49.61C91.38 52.19 93.77 53.83 97.27 53.58C99.95 53.39 103.58 51.8 106.31 48.85C107.43 47.64 108.8 45.61 110.31 42.89C117.18 45.38 124.06 48.05 131.11 49.85C138.65 51.77 147.14 52.39 154.89 51.82C159.84 51.46 162.56 50.57 165.88 49.62C165.88 49.62 177.02 46.05 179.52 39.09C179.72 38.55 179.78 37.96 179.71 37.39C179.71 37.39 179.71 37.39 179.71 37.38L179.73 37.37ZM119.67 12.96C120.42 11.22 121.6 9.04 123.35 8.33C123.69 8.19 124.12 8.13 124.5 8.24C124.92 8.36 125.21 8.65 125.38 9.07C126.5 11.8 124.84 17.52 123.64 20.24C122.68 22.41 118.89 28.54 115.15 30.14C116.26 26.11 118.49 15.67 119.67 12.96ZM104.53 47.7C102.66 50.36 99.97 51.57 97.95 51.63C95.86 51.7 94.23 50.74 93.17 48.6C92.6 47.46 92.47 45.23 93.27 43.73C94.14 42.11 96.08 40.74 98.6 40.59C101.28 40.43 104.8 41.45 107.36 42.3C106.55 44.37 105.6 46.19 104.53 47.7Z" fill="#009FE3"></path>
    <path d="M75.08 11.79H67.46V12.73C69.31 13.67 70.23 14.47 70.23 15.79C70.23 16.05 70.25 16.22 70.14 16.58C69.39 18.86 64.2 30.25 64.13 30.39C63.95 30.8 63.71 31.01 63.51 31.01C63.31 31.01 63.07 30.85 62.99 30.63L57.86 16.53C57.58 15.61 57.45 14.97 57.45 14.44C57.45 14.02 57.51 13.22 57.91 12.42L57.55 11.79H47.62V12.73C49.19 13.4 50.42 14.26 51.09 15.44L59.92 37.75L62.86 38.69C63.13 38.26 65.72 32.47 70.63 21.33C72.63 16.23 74.22 13.24 75.4 12.38L75.08 11.79Z" fill="#004B9C"></path>
    <path d="M97.64 31.12C95.92 33.11 93.35 33.87 90.41 33.87C87.78 33.87 85.66 33.03 84.05 31.34C82.72 29.57 81.91 27.63 81.64 25.51C81.64 24.84 81.86 24.37 82.29 24.1C82.29 23.83 86.02 23.18 93.47 22.15C96.45 21.84 97.94 20.97 97.94 19.56C97.9 18.9 97.65 18.03 97.18 16.97C95.26 13.36 92.33 11.56 88.41 11.56C86.09 11.56 83.92 12.25 81.88 13.62C78.03 16.68 76.11 20.59 76.11 25.33C76.23 27.1 76.44 28.53 76.76 29.63C78.84 35.24 82.59 38.05 88 38.05H88.71C92.08 38.05 95.27 36.5 97.83 33.05C98.08 32.72 98.27 32.37 98.43 32.02L97.64 31.12ZM81.64 20.57C82.24 16.39 84.41 14.14 87 13.92C88.48 13.79 89.1 14.13 89.87 14.69C90.94 15.47 91.58 16.68 92.06 18.93C92.13 19.27 92.13 19.59 92 19.85C91.78 20.28 91.52 20.3 91.21 20.39L82.88 21.53C82.26 21.59 82.01 21.64 81.74 21.29C81.6 21.1 81.6 20.87 81.64 20.58V20.57Z" fill="#004B9C"></path>
    <path d="M45.5199 37.5C45.3499 37.43 45.1999 37.35 45.0899 37.25C44.2599 36.45 43.7999 35.67 43.5899 32.99C43.5199 32.1 43.4799 30.97 43.4599 29.73V16.52C43.4599 14.4 43.5999 12.64 43.8699 11.22L43.5599 10.93L34.0199 13.82V14.52C34.0199 14.52 35.5699 14.77 36.0799 14.87C37.2499 15.12 37.7299 15.85 37.7299 17.81C37.6699 29.16 37.6699 29.63 37.6699 30.02C37.6699 30.41 37.4599 31.26 36.5499 32.14C33.7999 34.81 30.5099 34.67 30.0199 34.67C28.3899 34.67 26.7199 33.47 26.7199 30.08V16.48C26.7199 14.36 26.8599 12.6 27.1299 11.18L26.8199 10.89L17.1899 13.78V14.48C17.1899 14.48 18.7399 14.73 19.2499 14.83C20.4199 15.08 20.8999 15.81 20.8999 17.77L20.8399 29.66C20.8399 31.43 20.9799 32.92 21.2499 34.13C22.3099 37.15 24.3899 38.66 27.4899 38.66C33.5299 38.66 36.0199 33.89 37.3799 33.89C37.7699 33.89 37.9399 34.24 38.0899 34.66C38.7999 37.2 41.2999 38.77 45.5299 38.67V37.48L45.5199 37.5Z" fill="#004B9C"></path>
  </g>
  <defs>
    <linearGradient id="paint0_linear_13_409" x1="261.709" y1="40.6485" x2="289.298" y2="14.6284" gradientUnits="userSpaceOnUse">
      <stop stop-color="#E68F01"></stop>
      <stop offset="0.18" stop-color="#BB6116"></stop>
      <stop offset="0.36" stop-color="#E28106"></stop>
      <stop offset="0.6" stop-color="#FED799"></stop>
      <stop offset="0.85" stop-color="#CD7112"></stop>
      <stop offset="1" stop-color="#D3790F"></stop>
    </linearGradient>
    <clipPath id="clip0_13_409">
      <rect width="142" height="54" fill="white" transform="translate(193)"></rect>
    </clipPath>
    <clipPath id="clip1_13_409">
      <rect width="179.76" height="53.6" fill="white"></rect>
    </clipPath>
  </defs>
</svg>
